<svg xmlns="http://www.w3.org/2000/svg" viewBox="0 0 80 80" width="80" height="80">
  <defs>
    <filter id="glow2i" x="-40%" y="-40%" width="180%" height="180%">
      <feGaussianBlur stdDeviation="3" result="blur"/>
      <feFlood flood-color="#00D4FF" flood-opacity="0.3" result="color"/>
      <feComposite in="color" in2="blur" operator="in" result="glow"/>
      <feMerge>
        <feMergeNode in="glow"/>
        <feMergeNode in="SourceGraphic"/>
      </feMerge>
    </filter>
    <clipPath id="hexClip2">
      <polygon points="40,8 70,23 70,57 40,72 10,57 10,23"/>
    </clipPath>
  </defs>
  <rect width="80" height="80" fill="#000"/>
  <g filter="url(#glow2i)">
    <polygon points="40,6 72,22 72,58 40,74 8,58 8,22" fill="none" stroke="#00D4FF" stroke-width="2.2" stroke-linejoin="round"/>
    <polygon points="40,18 60,28 60,52 40,62 20,52 20,28" fill="none" stroke="#00D4FF" stroke-width="1" opacity="0.3" stroke-linejoin="round"/>
    <g clip-path="url(#hexClip2)">
      <circle cx="22" cy="28" r="3" fill="#00D4FF" opacity="0.7"/>
      <circle cx="22" cy="40" r="3" fill="#00D4FF" opacity="0.7"/>
      <circle cx="22" cy="52" r="3" fill="#00D4FF" opacity="0.7"/>
      <circle cx="40" cy="22" r="3.5" fill="#00D4FF" opacity="0.9"/>
      <circle cx="40" cy="40" r="4" fill="#00D4FF"/>
      <circle cx="40" cy="58" r="3.5" fill="#00D4FF" opacity="0.9"/>
      <circle cx="58" cy="28" r="3" fill="#00D4FF" opacity="0.7"/>
      <circle cx="58" cy="40" r="3" fill="#00D4FF" opacity="0.7"/>
      <circle cx="58" cy="52" r="3" fill="#00D4FF" opacity="0.7"/>
      <line x1="22" y1="28" x2="40" y2="22" stroke="#00D4FF" stroke-width="0.7" opacity="0.35"/>
      <line x1="22" y1="28" x2="40" y2="40" stroke="#00D4FF" stroke-width="0.7" opacity="0.35"/>
      <line x1="22" y1="40" x2="40" y2="22" stroke="#00D4FF" stroke-width="0.7" opacity="0.25"/>
      <line x1="22" y1="40" x2="40" y2="40" stroke="#00D4FF" stroke-width="0.9" opacity="0.45"/>
      <line x1="22" y1="40" x2="40" y2="58" stroke="#00D4FF" stroke-width="0.7" opacity="0.25"/>
      <line x1="22" y1="52" x2="40" y2="40" stroke="#00D4FF" stroke-width="0.7" opacity="0.35"/>
      <line x1="22" y1="52" x2="40" y2="58" stroke="#00D4FF" stroke-width="0.7" opacity="0.35"/>
      <line x1="40" y1="22" x2="58" y2="28" stroke="#00D4FF" stroke-width="0.7" opacity="0.35"/>
      <line x1="40" y1="22" x2="58" y2="40" stroke="#00D4FF" stroke-width="0.7" opacity="0.25"/>
      <line x1="40" y1="40" x2="58" y2="28" stroke="#00D4FF" stroke-width="0.7" opacity="0.35"/>
      <line x1="40" y1="40" x2="58" y2="40" stroke="#00D4FF" stroke-width="0.9" opacity="0.45"/>
      <line x1="40" y1="40" x2="58" y2="52" stroke="#00D4FF" stroke-width="0.7" opacity="0.35"/>
      <line x1="40" y1="58" x2="58" y2="40" stroke="#00D4FF" stroke-width="0.7" opacity="0.25"/>
      <line x1="40" y1="58" x2="58" y2="52" stroke="#00D4FF" stroke-width="0.7" opacity="0.35"/>
    </g>
  </g>
</svg>