<svg xmlns="http://www.w3.org/2000/svg" viewBox="0 0 80 80" width="80" height="80">
  <defs>
    <filter id="glow" x="-50%" y="-50%" width="200%" height="200%">
      <feGaussianBlur stdDeviation="2.5" result="blur"/>
      <feFlood flood-color="#00D4FF" flood-opacity="0.35" result="color"/>
      <feComposite in="color" in2="blur" operator="in" result="shadow"/>
      <feComposite in="SourceGraphic" in2="shadow" operator="over"/>
    </filter>
  </defs>
  <rect width="80" height="80" fill="#000"/>
  <g transform="translate(40,40)" filter="url(#glow)">
    <path d="M-26,28 C-18,18 -10,2 -10,-6 C-10,-14 -18,-24 -26,-28" fill="none" stroke="#00D4FF" stroke-width="2.5" stroke-linecap="round"/>
    <path d="M-26,-28 C-18,-18 -10,-2 -10,6 C-10,14 -18,24 -26,28" fill="none" stroke="#00D4FF" stroke-width="2.5" stroke-linecap="round" opacity="0.35"/>
    <path d="M26,28 C18,18 10,2 10,-6 C10,-14 18,-24 26,-28" fill="none" stroke="#00D4FF" stroke-width="2.5" stroke-linecap="round" opacity="0.35"/>
    <path d="M26,-28 C18,-18 10,-2 10,6 C10,14 18,24 26,28" fill="none" stroke="#00D4FF" stroke-width="2.5" stroke-linecap="round"/>
    <line x1="-18" y1="-22" x2="18" y2="-22" stroke="#00D4FF" stroke-width="1.3" opacity="0.5"/>
    <line x1="-24" y1="-11" x2="24" y2="-11" stroke="#00D4FF" stroke-width="1.3" opacity="0.6"/>
    <line x1="-22" y1="0" x2="22" y2="0" stroke="#00D4FF" stroke-width="1.3" opacity="0.7"/>
    <line x1="-24" y1="11" x2="24" y2="11" stroke="#00D4FF" stroke-width="1.3" opacity="0.6"/>
    <line x1="-18" y1="22" x2="18" y2="22" stroke="#00D4FF" stroke-width="1.3" opacity="0.5"/>
    <circle cx="-18" cy="-22" r="3" fill="#00D4FF"/>
    <circle cx="18" cy="-22" r="3" fill="#00D4FF"/>
    <circle cx="0" cy="0" r="4" fill="#00D4FF"/>
    <circle cx="-18" cy="22" r="3" fill="#00D4FF"/>
    <circle cx="18" cy="22" r="3" fill="#00D4FF"/>
    <circle cx="-24" cy="-11" r="2.2" fill="#00D4FF" opacity="0.8"/>
    <circle cx="24" cy="-11" r="2.2" fill="#00D4FF" opacity="0.8"/>
    <circle cx="-24" cy="11" r="2.2" fill="#00D4FF" opacity="0.8"/>
    <circle cx="24" cy="11" r="2.2" fill="#00D4FF" opacity="0.8"/>
    <line x1="-18" y1="-22" x2="0" y2="0" stroke="#00D4FF" stroke-width="0.8" opacity="0.25"/>
    <line x1="18" y1="-22" x2="0" y2="0" stroke="#00D4FF" stroke-width="0.8" opacity="0.25"/>
    <line x1="0" y1="0" x2="-18" y2="22" stroke="#00D4FF" stroke-width="0.8" opacity="0.25"/>
    <line x1="0" y1="0" x2="18" y2="22" stroke="#00D4FF" stroke-width="0.8" opacity="0.25"/>
  </g>
</svg>